<svg width="243" height="60" viewBox="0 0 243 60" fill="none" xmlns="http://www.w3.org/2000/svg">
<circle cx="30" cy="30" r="30" fill="#2B59FF"/>
<path fill-rule="evenodd" clip-rule="evenodd" d="M22.4472 20.076L33.8396 25.2415C35.944 26.1955 38.4297 25.2782 39.3922 23.1915C40.3542 21.1047 39.4282 18.6402 37.3243 17.6858L25.9314 12.5198C23.8276 11.5658 21.3418 12.4836 20.3799 14.5699C19.4179 16.6566 20.3429 19.1216 22.4472 20.076ZM37.3242 31.3848L25.9317 26.2193C23.8274 25.2649 21.3417 26.1826 20.3797 28.2694C19.4177 30.3561 20.3432 32.8206 22.447 33.775L33.8399 38.941C35.9438 39.895 38.4295 38.9767 39.392 36.8905C40.354 34.8037 39.4285 32.3387 37.3242 31.3848ZM20.3791 41.9679C21.3416 39.8812 23.8269 38.9634 25.9312 39.9174C28.0355 40.8713 28.961 43.3363 27.9986 45.423C27.0366 47.5093 24.5508 48.4275 22.447 47.4736C20.3427 46.5197 19.4172 44.0547 20.3791 41.9679Z" fill="white"/>
<path fill-rule="evenodd" clip-rule="evenodd" d="M102.569 36.2404C102.119 35.9669 101.606 35.6521 101.031 35.2941C100.457 34.9368 99.8432 34.5593 99.1881 34.1594C98.5351 33.7602 97.8705 33.3552 97.1943 32.9452C96.5181 32.5352 95.8644 32.1411 95.234 31.7628V36.1452C95.234 36.8186 95.2959 37.3809 95.4203 37.8328C95.5434 38.2847 95.7523 38.642 96.0449 38.9048C96.3383 39.1682 96.727 39.3566 97.2118 39.4721C97.6966 39.5883 98.3095 39.6454 99.0534 39.6454H104.767V43.5874H96.4176C95.3352 43.5874 94.4049 43.4502 93.6282 43.1773C92.8508 42.9038 92.2138 42.5096 91.7188 41.995C91.2217 41.4796 90.857 40.8595 90.6204 40.1348C90.3831 39.4093 90.2644 38.6052 90.2644 37.7224V21.0731H76V17.1636H91.887C94.1188 17.1636 95.234 18.2572 95.234 20.4429V24.5733C95.7974 24.1532 96.3659 23.7222 96.9417 23.2812C97.516 22.8394 98.0671 22.4092 98.5977 21.9884C99.1262 21.5675 99.6168 21.1684 100.067 20.7901C100.519 20.4111 100.913 20.0748 101.25 19.781L104.495 23.0603C104.023 23.4176 103.493 23.8117 102.908 24.2427C102.321 24.6736 101.702 25.1204 101.047 25.5824C100.395 26.0451 99.7238 26.5086 99.0367 26.9698C98.3488 27.4332 97.69 27.8736 97.0596 28.2944C97.69 28.6308 98.3714 28.9931 99.1051 29.3822C99.8367 29.7713 100.558 30.1546 101.269 30.5335C101.978 30.9111 102.66 31.2799 103.313 31.6365C103.967 31.9938 104.552 32.31 105.07 32.5829L102.569 36.2404Z" fill="#1A202C"/>
<path fill-rule="evenodd" clip-rule="evenodd" d="M126.168 30.026H133.469V28.7015H126.168V30.026ZM126.168 25.6156H133.469V24.291H126.168V25.6156ZM126.168 21.2613H133.469V19.9685H126.168V21.2613ZM132.922 43.9362H120.921C119.299 43.9362 118.155 43.6626 117.491 43.1161C116.826 42.569 116.494 41.6652 116.494 40.4042V34.6345H120.685V38.923C120.685 39.5322 120.775 39.9263 120.956 40.1046C121.137 40.2836 121.553 40.3724 122.207 40.3724H132.922V43.9362ZM113.933 22.8743H109.91V19.3431H113.933V16.0955H118.09V19.3431H121.539V22.8743H118.09V24.8291L119.375 23.7579C119.759 24.1361 120.181 24.5721 120.643 25.0658C121.104 25.5603 121.561 26.049 122.012 26.5326V16.0645H126.17V16.7574H134.351C135.41 16.7574 136.226 17.0209 136.8 17.5457C137.376 18.0712 137.662 18.8176 137.662 19.7848V33.8788H135.635C135.95 34.3632 136.299 34.9096 136.682 35.5189C137.065 36.1281 137.455 36.7539 137.849 37.3942C138.242 38.0366 138.62 38.661 138.981 39.271C139.342 39.8809 139.658 40.4173 139.928 40.8793L136.108 42.7712C135.839 42.245 135.528 41.6625 135.178 41.0207C134.829 40.3797 134.469 39.7337 134.096 39.0819C133.725 38.43 133.358 37.8049 132.998 37.2058C132.637 36.6067 132.31 36.0754 132.018 35.6134L135.635 33.8788H133.472V33.2479H125.967L130.023 37.0636L126.913 39.6485C126.688 39.3973 126.368 39.0494 125.951 38.6091C125.532 38.1673 125.1 37.7104 124.65 37.2376C124.198 36.764 123.752 36.3179 123.313 35.8964C122.874 35.4763 122.529 35.1507 122.283 34.9197L124.243 33.2479H122.012V27.9828L119.984 29.6856C119.69 29.3283 119.381 28.966 119.054 28.5971C118.727 28.2297 118.406 27.8673 118.09 27.51V33.5641H113.933V22.8743ZM113.358 23.6297V26.0263C113.358 27.2873 113.318 28.3816 113.239 29.3056C113.159 30.231 113.003 30.9875 112.765 31.5758C112.529 32.1648 112.191 32.6008 111.752 32.8845C111.312 33.1682 110.742 33.3104 110.044 33.3104H109.335V29.8412H109.808C109.897 29.8412 109.982 29.7943 110.06 29.6997C110.14 29.6052 110.202 29.4168 110.247 29.1324C110.293 28.8487 110.326 28.4336 110.349 27.8865C110.371 27.3407 110.382 26.6254 110.382 25.7426V23.6297H113.358ZM115.687 35.0696C115.349 36.374 114.91 37.7144 114.369 39.091C113.828 40.4676 113.287 41.6918 112.746 42.7645L108.858 41.4081C109.445 40.2734 109.979 39.0592 110.464 37.7664C110.949 36.4743 111.349 35.2595 111.665 34.1247L115.687 35.0696Z" fill="#1A202C"/>
<path fill-rule="evenodd" clip-rule="evenodd" d="M154.928 18H156.928V42H154.928V18Z" fill="#1A202C"/>
<path d="M171.928 42.2879V17.7119H176.92V29.0719L186.488 17.7119H192.472L182.168 29.9999L192.472 42.2879H186.36L176.92 31.0559V42.2879H171.928Z" fill="#1A202C"/>
<path d="M203.94 42.2879V32.4319L194.756 17.7119H200.324L206.5 27.8239L212.676 17.7119H218.084L208.932 32.4319V42.2879H203.94Z" fill="#1A202C"/>
<path d="M219.619 29.9999C219.619 28.2079 219.95 26.5439 220.611 25.0079C221.294 23.4506 222.222 22.1066 223.395 20.9759C224.569 19.8239 225.934 18.9279 227.491 18.2879C229.07 17.6266 230.755 17.2959 232.547 17.2959C234.467 17.2959 236.27 17.6479 237.955 18.3519C239.662 19.0559 241.049 19.9946 242.115 21.1679L238.499 24.3679C237.795 23.7492 236.963 23.2266 236.003 22.7999C235.043 22.3732 233.934 22.1599 232.675 22.1599C231.459 22.1599 230.361 22.3732 229.379 22.7999C228.419 23.2266 227.598 23.8026 226.915 24.5279C226.233 25.2532 225.699 26.0959 225.315 27.0559C224.953 27.9946 224.771 28.9759 224.771 29.9999C224.771 31.0239 224.953 32.0159 225.315 32.9759C225.699 33.9146 226.233 34.7466 226.915 35.4719C227.598 36.1972 228.419 36.7732 229.379 37.1999C230.361 37.6266 231.459 37.8399 232.675 37.8399C234.062 37.8399 235.203 37.6266 236.099 37.1999C236.995 36.7519 237.795 36.2292 238.499 35.6319L242.115 38.8319C240.985 40.0906 239.587 41.0506 237.923 41.7119C236.259 42.3732 234.467 42.7039 232.547 42.7039C230.755 42.7039 229.07 42.3839 227.491 41.7439C225.934 41.0826 224.569 40.1866 223.395 39.0559C222.222 37.9039 221.294 36.5599 220.611 35.0239C219.95 33.4666 219.619 31.7919 219.619 29.9999Z" fill="#1A202C"/>
</svg>
