<svg width="510" height="820" viewBox="0 0 510 820" fill="none" xmlns="http://www.w3.org/2000/svg">
<g clip-path="url(#clip0_12333_21655)">
<rect width="510" height="820" fill="#F5F8FF"/>
<g filter="url(#filter0_d_12333_21655)">
<path d="M-133 772.5C-69.732 658.502 50.6373 437.854 83.859 375.583C88.8431 366.24 100.368 361.538 110.445 364.788L618 528.5L454 984L-133 772.5Z" fill="url(#paint0_linear_12333_21655)" shape-rendering="crispEdges"/>
<path d="M-133 772.5C-69.732 658.502 50.6373 437.854 83.859 375.583C88.8431 366.24 100.368 361.538 110.445 364.788L618 528.5L454 984L-133 772.5Z" stroke="white" stroke-width="2" shape-rendering="crispEdges"/>
</g>
<path d="M195.404 439.785L106.646 408.861C101.086 406.924 94.9421 409.306 92.1419 414.486L-80.8824 734.512C-86.8897 745.623 -81.2201 759.452 -69.1419 763.148L-0.195824 784.248C13.5586 788.458 28.365 782.312 35.096 769.6L201.506 455.32C204.659 449.366 201.766 442.002 195.404 439.785Z" fill="url(#paint1_linear_12333_21655)"/>
<path d="M601.797 570.05L242.028 454.072C236.51 452.293 230.509 454.713 227.77 459.823L54.0896 783.813C48.2725 794.664 53.5477 808.145 65.1848 812.166L451.678 945.714C467.325 951.12 484.395 942.831 489.82 927.19L608.815 584.124C610.837 578.295 607.67 571.943 601.797 570.05Z" fill="url(#paint2_linear_12333_21655)"/>
<path d="M188 677L164 651L175 649.5L188 677Z" fill="#2B59FF"/>
<path d="M162.504 458.668L113.386 442.295C110.247 441.249 106.804 442.544 105.132 445.4L99.6723 454.727C97.7678 457.98 99.3003 462.163 102.856 463.416L151.534 480.574C154.705 481.691 158.223 480.397 159.913 477.49L165.793 467.376C167.705 464.087 166.113 459.871 162.504 458.668Z" fill="#BFCDFF"/>
<path d="M161.004 455.168L111.886 438.795C108.747 437.749 105.304 439.044 103.632 441.9L98.1723 451.227C96.2678 454.48 97.8003 458.663 101.356 459.916L150.034 477.074C153.205 478.191 156.723 476.897 158.413 473.99L164.293 463.876C166.205 460.587 164.613 456.371 161.004 455.168Z" fill="#D3E4FF"/>
<g opacity="0.7">
<path d="M144.004 490.168L94.8864 473.795C91.7469 472.749 88.3035 474.044 86.6317 476.9L81.1723 486.227C79.2678 489.48 80.8003 493.663 84.3559 494.916L133.034 512.074C136.205 513.191 139.723 511.897 141.413 508.99L147.293 498.876C149.205 495.587 147.613 491.371 144.004 490.168Z" fill="#BFCDFF"/>
<path d="M142.504 486.668L93.3864 470.295C90.2469 469.249 86.8035 470.544 85.1317 473.4L79.6723 482.727C77.7678 485.98 79.3003 490.163 82.8559 491.416L131.534 508.574C134.705 509.691 138.223 508.397 139.913 505.49L145.793 495.376C147.705 492.087 146.113 487.871 142.504 486.668Z" fill="#D3E4FF"/>
</g>
<g opacity="0.6">
<path d="M124.004 523.168L74.8864 506.795C71.7469 505.749 68.3035 507.044 66.6317 509.9L61.1723 519.227C59.2678 522.48 60.8003 526.663 64.3559 527.916L113.034 545.074C116.205 546.191 119.723 544.897 121.413 541.99L127.293 531.876C129.205 528.587 127.613 524.371 124.004 523.168Z" fill="#BFCDFF"/>
<path d="M122.504 519.668L73.3864 503.295C70.2469 502.249 66.8035 503.544 65.1317 506.4L59.6723 515.727C57.7678 518.98 59.3003 523.163 62.8559 524.416L111.534 541.574C114.705 542.691 118.223 541.397 119.913 538.49L125.793 528.376C127.705 525.087 126.113 520.871 122.504 519.668Z" fill="#D3E4FF"/>
</g>
<g opacity="0.3">
<path d="M104.004 557.168L54.8864 540.795C51.7469 539.749 48.3035 541.044 46.6317 543.9L41.1723 553.227C39.2678 556.48 40.8003 560.663 44.3559 561.916L93.0343 579.074C96.2053 580.191 99.7229 578.897 101.413 575.99L107.293 565.876C109.205 562.587 107.613 558.371 104.004 557.168Z" fill="#BFCDFF"/>
<path d="M102.504 553.668L53.3864 537.295C50.2469 536.249 46.8035 537.544 45.1317 540.4L39.6723 549.727C37.7678 552.98 39.3003 557.163 42.8559 558.416L91.5343 575.574C94.7053 576.691 98.2229 575.397 99.9128 572.49L105.793 562.376C107.705 559.087 106.113 554.871 102.504 553.668Z" fill="#D3E4FF"/>
</g>
<ellipse cx="4.96589" cy="4.5451" rx="4.96589" ry="4.5451" transform="matrix(-0.112523 -0.993649 -0.993649 0.112523 114.15 390.869)" fill="#ED6B5E"/>
<ellipse cx="4.78305" cy="4.5451" rx="4.78305" ry="4.5451" transform="matrix(-0.145592 -0.989345 -0.989345 0.145592 136.131 398.231)" fill="#F4BF4F"/>
<path d="M369.5 533C362.333 524.5 347.9 507.4 347.5 507V524L369.5 533Z" fill="#2B59FF"/>
<ellipse cx="4.79036" cy="4.5451" rx="4.79036" ry="4.5451" transform="matrix(-0.157044 -0.987592 -0.987592 0.157044 158.223 406.34)" fill="#62C554"/>
<g opacity="0.4" filter="url(#filter1_f_12333_21655)">
<path d="M345.715 534.894L341.833 533.739C290.003 518.322 233.475 541.262 207.225 588.536C173.239 649.742 202.899 726.788 269.153 749.405L275.032 751.411C329.596 770.037 389.497 745.177 414.837 693.389C445.679 630.357 412.973 554.908 345.715 534.894Z" fill="url(#paint3_linear_12333_21655)"/>
</g>
<path d="M313.715 495.894L309.833 494.739C258.003 479.322 201.475 502.262 175.225 549.536C141.239 610.742 170.899 687.788 237.153 710.405L243.032 712.411C297.596 731.037 357.497 706.177 382.837 654.389C413.679 591.357 380.973 515.908 313.715 495.894Z" fill="url(#paint4_linear_12333_21655)"/>
<g filter="url(#filter2_b_12333_21655)">
<path d="M295.222 474.372C293.413 473.833 291.615 473.297 289.828 472.765C238.004 457.335 181.476 480.261 155.226 527.534C121.24 588.74 150.902 665.786 217.158 688.4L224.533 690.917C279.097 709.54 338.996 684.678 364.336 632.891C395.179 569.858 362.476 494.405 295.222 474.372Z" fill="url(#paint5_linear_12333_21655)"/>
<path d="M295.222 474.372C293.413 473.833 291.615 473.297 289.828 472.765C238.004 457.335 181.476 480.261 155.226 527.534C121.24 588.74 150.902 665.786 217.158 688.4L224.533 690.917C279.097 709.54 338.996 684.678 364.336 632.891C395.179 569.858 362.476 494.405 295.222 474.372Z" stroke="url(#paint6_linear_12333_21655)" stroke-width="2"/>
</g>
<g filter="url(#filter3_f_12333_21655)">
<path fill-rule="evenodd" clip-rule="evenodd" d="M260.576 547.777L289.227 583.485C294.519 590.08 304.152 591.197 310.746 585.976C317.338 580.754 318.392 571.176 313.101 564.58L284.45 528.869C279.159 522.275 269.525 521.16 262.933 526.38C256.341 531.602 255.284 541.18 260.576 547.777ZM290.442 609.309L261.791 573.6C256.499 567.003 246.866 565.888 240.273 571.11C233.681 576.332 232.626 585.909 237.916 592.505L266.568 628.216C271.859 634.81 281.494 635.924 288.087 630.704C294.679 625.482 295.735 615.904 290.442 609.309ZM217.613 615.833C224.207 610.612 233.839 611.726 239.132 618.321C244.425 624.916 243.369 634.495 236.775 639.716C230.184 644.936 220.549 643.823 215.258 637.228C209.966 630.633 211.021 621.054 217.613 615.833Z" fill="#2B59FF"/>
</g>
<path fill-rule="evenodd" clip-rule="evenodd" d="M251.986 530.257L249.158 521.202L259.934 506.905L257.522 513.993C264.1 509.089 273.484 510.281 278.68 516.757L305.297 549.931L307.621 549.826L309.403 555.868C312.137 562.045 310.504 569.485 304.977 573.863C298.383 579.085 288.75 577.968 283.457 571.373L254.806 535.664C253.471 533.999 252.539 532.144 252 530.217L251.986 530.257ZM282.569 594.574L256.022 561.488C251.029 555.263 242.171 553.919 235.649 558.173L237.539 553.485L226.311 565.273L229.138 574.328L229.166 574.26C229.666 576.431 230.654 578.531 232.147 580.392L260.799 616.103C266.09 622.698 275.725 623.811 282.318 618.592C287.162 614.755 289.017 608.565 287.559 602.935L287.601 602.952L284.764 594.396L282.569 594.574ZM235.177 609.057L233.573 603.919L230.289 603.3C224.851 599.418 217.306 599.396 211.844 603.72C210.177 605.041 208.864 606.639 207.918 608.398L203.935 610.853L206.295 617.884C206.689 620.444 207.744 622.942 209.489 625.116C214.78 631.71 224.414 632.824 231.006 627.604C236.7 623.095 238.264 615.337 235.177 609.057Z" fill="#94ABFF"/>
<path fill-rule="evenodd" clip-rule="evenodd" d="M251.979 526.609L280.63 562.317C285.923 568.912 295.556 570.029 302.15 564.808C308.742 559.586 309.795 550.008 304.505 543.412L275.853 507.701C270.562 501.107 260.928 499.992 254.337 505.212C247.744 510.434 246.687 520.012 251.979 526.609ZM281.846 588.141L253.195 552.432C247.903 545.835 238.269 544.72 231.677 549.942C225.084 555.164 224.03 564.741 229.32 571.337L257.972 607.048C263.263 613.642 272.897 614.756 279.49 609.536C286.083 604.315 287.138 594.736 281.846 588.141ZM209.017 594.665C215.611 589.444 225.243 590.558 230.535 597.153C235.828 603.748 234.773 613.327 228.179 618.548C221.587 623.768 211.952 622.655 206.662 616.06C201.369 609.465 202.424 599.886 209.017 594.665Z" fill="white"/>
<g filter="url(#filter4_f_12333_21655)">
<path d="M430.316 665.526L453.532 619.788C456.401 614.136 462.929 611.377 468.982 613.258L521.157 629.474C527.082 631.316 529.917 638.052 527.093 643.576L503.523 689.675C500.626 695.342 494.052 698.078 487.989 696.139L436.188 679.577C430.321 677.701 427.528 671.019 430.316 665.526Z" fill="#96AFFF" fill-opacity="0.3"/>
</g>
<path d="M425.316 650.526L448.532 604.788C451.401 599.136 457.929 596.377 463.982 598.258L516.157 614.474C522.082 616.316 524.917 623.052 522.093 628.576L498.523 674.675C495.626 680.342 489.052 683.078 482.989 681.139L431.188 664.577C425.321 662.701 422.528 656.019 425.316 650.526Z" fill="white" stroke="white"/>
<g filter="url(#filter5_f_12333_21655)">
<path d="M384.316 763.526L407.532 717.788C410.401 712.136 416.929 709.377 422.982 711.258L475.157 727.474C481.082 729.316 483.917 736.052 481.093 741.576L457.523 787.675C454.626 793.342 448.052 796.078 441.989 794.139L390.188 777.577C384.321 775.701 381.528 769.019 384.316 763.526Z" fill="#96AFFF" fill-opacity="0.3"/>
</g>
<path d="M377.316 750.526L400.532 704.788C403.401 699.136 409.929 696.377 415.982 698.258L468.157 714.474C474.082 716.316 476.917 723.052 474.093 728.576L450.523 774.675C447.626 780.342 441.052 783.078 434.989 781.139L383.188 764.577C377.321 762.701 374.528 756.019 377.316 750.526Z" fill="white" stroke="white"/>
<g filter="url(#filter6_f_12333_21655)">
<path d="M21.2505 780.78L55.4978 712.913C58.3787 707.204 64.9838 704.438 71.0732 706.39L225.982 756.062C231.846 757.942 234.634 764.625 231.843 770.115L197.039 838.586C194.138 844.293 187.513 847.039 181.425 845.056L27.0817 794.794C21.2546 792.896 18.4896 786.251 21.2505 780.78Z" fill="#96AFFF" fill-opacity="0.3"/>
<path d="M21.2505 780.78L55.4978 712.913C58.3787 707.204 64.9838 704.438 71.0732 706.39L225.982 756.062C231.846 757.942 234.634 764.625 231.843 770.115L197.039 838.586C194.138 844.293 187.513 847.039 181.425 845.056L27.0817 794.794C21.2546 792.896 18.4896 786.251 21.2505 780.78Z" stroke="white"/>
</g>
<path d="M10.2505 759.78L44.4978 691.913C47.3787 686.204 53.9838 683.438 60.0732 685.39L214.982 735.062C220.846 736.942 223.634 743.625 220.843 749.115L186.039 817.586C183.138 823.293 176.513 826.039 170.425 824.056L16.0817 773.794C10.2546 771.896 7.48962 765.251 10.2505 759.78Z" fill="white" stroke="white"/>
<g filter="url(#filter7_b_12333_21655)">
<path d="M420.316 643.526L443.532 597.788C446.401 592.136 452.929 589.377 458.982 591.258L511.157 607.474C517.082 609.316 519.917 616.052 517.093 621.576L493.523 667.675C490.626 673.342 484.052 676.078 477.989 674.139L426.188 657.577C420.321 655.701 417.528 649.019 420.316 643.526Z" fill="url(#paint7_linear_12333_21655)"/>
<path d="M420.316 643.526L443.532 597.788C446.401 592.136 452.929 589.377 458.982 591.258L511.157 607.474C517.082 609.316 519.917 616.052 517.093 621.576L493.523 667.675C490.626 673.342 484.052 676.078 477.989 674.139L426.188 657.577C420.321 655.701 417.528 649.019 420.316 643.526Z" stroke="url(#paint8_linear_12333_21655)"/>
</g>
<g filter="url(#filter8_f_12333_21655)">
<path d="M441.42 643.705L453.774 619.675C456.653 614.076 463.13 611.344 469.149 613.191L497.542 621.903C503.507 623.734 506.358 630.521 503.488 636.062L490.94 660.29C488.034 665.903 481.511 668.611 475.484 666.709L447.303 657.814C441.395 655.949 438.587 649.215 441.42 643.705Z" fill="url(#paint9_linear_12333_21655)" fill-opacity="0.39"/>
</g>
<g filter="url(#filter9_b_12333_21655)">
<path d="M437.42 634.705L449.774 610.675C452.653 605.076 459.13 602.344 465.149 604.191L493.542 612.903C499.507 614.734 502.358 621.521 499.488 627.062L486.94 651.29C484.034 656.903 477.511 659.611 471.484 657.709L443.303 648.814C437.395 646.949 434.587 640.215 437.42 634.705Z" fill="url(#paint10_linear_12333_21655)"/>
</g>
<g filter="url(#filter10_b_12333_21655)">
<path d="M372.316 743.526L395.532 697.788C398.401 692.136 404.929 689.377 410.982 691.258L463.157 707.474C469.082 709.316 471.917 716.052 469.093 721.576L445.523 767.675C442.626 773.342 436.052 776.078 429.989 774.139L378.188 757.577C372.321 755.701 369.528 749.019 372.316 743.526Z" fill="url(#paint11_linear_12333_21655)"/>
<path d="M372.316 743.526L395.532 697.788C398.401 692.136 404.929 689.377 410.982 691.258L463.157 707.474C469.082 709.316 471.917 716.052 469.093 721.576L445.523 767.675C442.626 773.342 436.052 776.078 429.989 774.139L378.188 757.577C372.321 755.701 369.528 749.019 372.316 743.526Z" stroke="url(#paint12_linear_12333_21655)"/>
</g>
<g filter="url(#filter11_f_12333_21655)">
<path d="M393.248 745.816L409.794 712.829C412.64 707.155 419.168 704.366 425.236 706.232L452.167 714.515C458.09 716.336 460.948 723.052 458.153 728.583L441.371 761.796C438.493 767.492 431.905 770.257 425.824 768.321L399.152 759.828C393.297 757.964 390.492 751.309 393.248 745.816Z" fill="#FFEAD8"/>
</g>
<g filter="url(#filter12_b_12333_21655)">
<path d="M387.248 739.816L403.794 706.829C406.64 701.155 413.168 698.366 419.236 700.232L446.167 708.515C452.09 710.336 454.948 717.052 452.153 722.583L435.371 755.796C432.493 761.492 425.905 764.257 419.824 762.321L393.152 753.828C387.297 751.964 384.492 745.309 387.248 739.816Z" fill="url(#paint13_linear_12333_21655)"/>
</g>
<g filter="url(#filter13_b_12333_21655)">
<path d="M5.2769 748.441L39.626 680.91C42.5281 675.204 49.1519 672.461 55.2386 674.443L211.682 725.388C217.533 727.293 220.292 733.98 217.486 739.456L182.578 807.589C179.655 813.293 173.012 816.016 166.927 814.004L11.0511 762.47C5.23747 760.547 2.50089 753.899 5.2769 748.441Z" fill="url(#paint14_linear_12333_21655)"/>
<path d="M5.2769 748.441L39.626 680.91C42.5281 675.204 49.1519 672.461 55.2386 674.443L211.682 725.388C217.533 727.293 220.292 733.98 217.486 739.456L182.578 807.589C179.655 813.293 173.012 816.016 166.927 814.004L11.0511 762.47C5.23747 760.547 2.50089 753.899 5.2769 748.441Z" stroke="url(#paint15_linear_12333_21655)"/>
</g>
<path d="M415 713L429 717.5" stroke="white" stroke-width="6" stroke-linecap="round"/>
<path d="M407 726L430.5 733.5" stroke="white" stroke-width="6" stroke-linecap="round"/>
<path d="M401 739L424.5 746.5" stroke="white" stroke-width="6" stroke-linecap="round"/>
<g filter="url(#filter14_f_12333_21655)">
<path d="M52 720L181 762.5" stroke="#80A3FF" stroke-opacity="0.4" stroke-width="6" stroke-linecap="round"/>
<path d="M97 712L152.5 730" stroke="#80A3FF" stroke-opacity="0.4" stroke-width="6" stroke-linecap="round"/>
<path d="M44 739L123.5 765.5" stroke="#80A3FF" stroke-opacity="0.4" stroke-width="6" stroke-linecap="round"/>
<path d="M36 757L115.5 783.5" stroke="#80A3FF" stroke-opacity="0.4" stroke-width="6" stroke-linecap="round"/>
<path d="M164.891 790.909C162.967 796.218 156.105 799.32 149.01 796.749C141.915 794.178 138.632 787.401 140.556 782.091C142.48 776.782 149.342 773.68 156.437 776.251C163.532 778.822 166.815 785.599 164.891 790.909Z" stroke="#80A3FF" stroke-opacity="0.4" stroke-width="6"/>
</g>
<path d="M50 716L179 758.5" stroke="#8FADFF" stroke-width="6" stroke-linecap="round"/>
<path d="M95 708L150.5 726" stroke="#8FADFF" stroke-width="6" stroke-linecap="round"/>
<path d="M42 735L121.5 761.5" stroke="#8FADFF" stroke-width="6" stroke-linecap="round"/>
<path d="M34 753L113.5 779.5" stroke="#8FADFF" stroke-width="6" stroke-linecap="round"/>
<path d="M162.891 786.909C160.967 792.218 154.105 795.32 147.01 792.749C139.915 790.178 136.632 783.401 138.556 778.091C140.48 772.782 147.342 769.68 154.437 772.251C161.532 774.822 164.815 781.599 162.891 786.909Z" stroke="#8FADFF" stroke-width="6"/>
<path d="M50 714L179 756.5" stroke="white" stroke-width="6" stroke-linecap="round"/>
<path d="M95 706L150.5 724" stroke="white" stroke-width="6" stroke-linecap="round"/>
<path d="M42 733L121.5 759.5" stroke="white" stroke-width="6" stroke-linecap="round"/>
<path d="M34 751L113.5 777.5" stroke="white" stroke-width="6" stroke-linecap="round"/>
<path d="M162.891 784.909C160.967 790.218 154.105 793.32 147.01 790.749C139.915 788.178 136.632 781.401 138.556 776.091C140.48 770.782 147.342 767.68 154.437 770.251C161.532 772.822 164.815 779.599 162.891 784.909Z" stroke="white" stroke-width="6"/>
<path d="M459 625L462.857 634L483 626.227" stroke="white" stroke-width="6" stroke-linecap="round" stroke-linejoin="round"/>
</g>
<defs>
<filter id="filter0_d_12333_21655" x="-187.445" y="308.762" width="869.736" height="738.518" filterUnits="userSpaceOnUse" color-interpolation-filters="sRGB">
<feFlood flood-opacity="0" result="BackgroundImageFix"/>
<feColorMatrix in="SourceAlpha" type="matrix" values="0 0 0 0 0 0 0 0 0 0 0 0 0 0 0 0 0 0 127 0" result="hardAlpha"/>
<feOffset dx="5" dy="4"/>
<feGaussianBlur stdDeviation="29"/>
<feComposite in2="hardAlpha" operator="out"/>
<feColorMatrix type="matrix" values="0 0 0 0 0.45098 0 0 0 0 0.635294 0 0 0 0 1 0 0 0 0.21 0"/>
<feBlend mode="normal" in2="BackgroundImageFix" result="effect1_dropShadow_12333_21655"/>
<feBlend mode="normal" in="SourceGraphic" in2="effect1_dropShadow_12333_21655" result="shape"/>
</filter>
<filter id="filter1_f_12333_21655" x="158.049" y="493.971" width="303.468" height="298.597" filterUnits="userSpaceOnUse" color-interpolation-filters="sRGB">
<feFlood flood-opacity="0" result="BackgroundImageFix"/>
<feBlend mode="normal" in="SourceGraphic" in2="BackgroundImageFix" result="shape"/>
<feGaussianBlur stdDeviation="17.5" result="effect1_foregroundBlur_12333_21655"/>
</filter>
<filter id="filter2_b_12333_21655" x="122.051" y="448.989" width="272.966" height="267.083" filterUnits="userSpaceOnUse" color-interpolation-filters="sRGB">
<feFlood flood-opacity="0" result="BackgroundImageFix"/>
<feGaussianBlur in="BackgroundImageFix" stdDeviation="9"/>
<feComposite in2="SourceAlpha" operator="in" result="effect1_backgroundBlur_12333_21655"/>
<feBlend mode="normal" in="SourceGraphic" in2="effect1_backgroundBlur_12333_21655" result="shape"/>
</filter>
<filter id="filter3_f_12333_21655" x="205.887" y="517.091" width="116.584" height="131.914" filterUnits="userSpaceOnUse" color-interpolation-filters="sRGB">
<feFlood flood-opacity="0" result="BackgroundImageFix"/>
<feBlend mode="normal" in="SourceGraphic" in2="BackgroundImageFix" result="shape"/>
<feGaussianBlur stdDeviation="3" result="effect1_foregroundBlur_12333_21655"/>
</filter>
<filter id="filter4_f_12333_21655" x="417.229" y="600.67" width="122.964" height="108.088" filterUnits="userSpaceOnUse" color-interpolation-filters="sRGB">
<feFlood flood-opacity="0" result="BackgroundImageFix"/>
<feBlend mode="normal" in="SourceGraphic" in2="BackgroundImageFix" result="shape"/>
<feGaussianBlur stdDeviation="6" result="effect1_foregroundBlur_12333_21655"/>
</filter>
<filter id="filter5_f_12333_21655" x="371.229" y="698.67" width="122.964" height="108.088" filterUnits="userSpaceOnUse" color-interpolation-filters="sRGB">
<feFlood flood-opacity="0" result="BackgroundImageFix"/>
<feBlend mode="normal" in="SourceGraphic" in2="BackgroundImageFix" result="shape"/>
<feGaussianBlur stdDeviation="6" result="effect1_foregroundBlur_12333_21655"/>
</filter>
<filter id="filter6_f_12333_21655" x="5.67358" y="691.268" width="241.76" height="168.93" filterUnits="userSpaceOnUse" color-interpolation-filters="sRGB">
<feFlood flood-opacity="0" result="BackgroundImageFix"/>
<feBlend mode="normal" in="SourceGraphic" in2="BackgroundImageFix" result="shape"/>
<feGaussianBlur stdDeviation="7" result="effect1_foregroundBlur_12333_21655"/>
</filter>
<filter id="filter7_b_12333_21655" x="414.729" y="586.17" width="107.965" height="93.0884" filterUnits="userSpaceOnUse" color-interpolation-filters="sRGB">
<feFlood flood-opacity="0" result="BackgroundImageFix"/>
<feGaussianBlur in="BackgroundImageFix" stdDeviation="2"/>
<feComposite in2="SourceAlpha" operator="in" result="effect1_backgroundBlur_12333_21655"/>
<feBlend mode="normal" in="SourceGraphic" in2="effect1_backgroundBlur_12333_21655" result="shape"/>
</filter>
<filter id="filter8_f_12333_21655" x="437.308" y="609.618" width="70.3044" height="60.6953" filterUnits="userSpaceOnUse" color-interpolation-filters="sRGB">
<feFlood flood-opacity="0" result="BackgroundImageFix"/>
<feBlend mode="normal" in="SourceGraphic" in2="BackgroundImageFix" result="shape"/>
<feGaussianBlur stdDeviation="1.5" result="effect1_foregroundBlur_12333_21655"/>
</filter>
<filter id="filter9_b_12333_21655" x="432.308" y="599.618" width="72.3044" height="62.6953" filterUnits="userSpaceOnUse" color-interpolation-filters="sRGB">
<feFlood flood-opacity="0" result="BackgroundImageFix"/>
<feGaussianBlur in="BackgroundImageFix" stdDeviation="2"/>
<feComposite in2="SourceAlpha" operator="in" result="effect1_backgroundBlur_12333_21655"/>
<feBlend mode="normal" in="SourceGraphic" in2="effect1_backgroundBlur_12333_21655" result="shape"/>
</filter>
<filter id="filter10_b_12333_21655" x="366.729" y="686.17" width="107.965" height="93.0884" filterUnits="userSpaceOnUse" color-interpolation-filters="sRGB">
<feFlood flood-opacity="0" result="BackgroundImageFix"/>
<feGaussianBlur in="BackgroundImageFix" stdDeviation="2"/>
<feComposite in2="SourceAlpha" operator="in" result="effect1_backgroundBlur_12333_21655"/>
<feBlend mode="normal" in="SourceGraphic" in2="effect1_backgroundBlur_12333_21655" result="shape"/>
</filter>
<filter id="filter11_f_12333_21655" x="390.182" y="703.656" width="71.0504" height="67.2788" filterUnits="userSpaceOnUse" color-interpolation-filters="sRGB">
<feFlood flood-opacity="0" result="BackgroundImageFix"/>
<feBlend mode="normal" in="SourceGraphic" in2="BackgroundImageFix" result="shape"/>
<feGaussianBlur stdDeviation="1" result="effect1_foregroundBlur_12333_21655"/>
</filter>
<filter id="filter12_b_12333_21655" x="382.182" y="695.656" width="75.0504" height="71.2788" filterUnits="userSpaceOnUse" color-interpolation-filters="sRGB">
<feFlood flood-opacity="0" result="BackgroundImageFix"/>
<feGaussianBlur in="BackgroundImageFix" stdDeviation="2"/>
<feComposite in2="SourceAlpha" operator="in" result="effect1_backgroundBlur_12333_21655"/>
<feBlend mode="normal" in="SourceGraphic" in2="effect1_backgroundBlur_12333_21655" result="shape"/>
</filter>
<filter id="filter13_b_12333_21655" x="-0.314209" y="669.302" width="223.405" height="149.862" filterUnits="userSpaceOnUse" color-interpolation-filters="sRGB">
<feFlood flood-opacity="0" result="BackgroundImageFix"/>
<feGaussianBlur in="BackgroundImageFix" stdDeviation="2"/>
<feComposite in2="SourceAlpha" operator="in" result="effect1_backgroundBlur_12333_21655"/>
<feBlend mode="normal" in="SourceGraphic" in2="effect1_backgroundBlur_12333_21655" result="shape"/>
</filter>
<filter id="filter14_f_12333_21655" x="28.9993" y="704.999" width="159.002" height="99.6572" filterUnits="userSpaceOnUse" color-interpolation-filters="sRGB">
<feFlood flood-opacity="0" result="BackgroundImageFix"/>
<feBlend mode="normal" in="SourceGraphic" in2="BackgroundImageFix" result="shape"/>
<feGaussianBlur stdDeviation="2" result="effect1_foregroundBlur_12333_21655"/>
</filter>
<linearGradient id="paint0_linear_12333_21655" x1="114.5" y1="423.5" x2="648" y2="1139" gradientUnits="userSpaceOnUse">
<stop stop-color="#F2F7FF"/>
<stop offset="1" stop-color="#74A6FF" stop-opacity="0"/>
</linearGradient>
<linearGradient id="paint1_linear_12333_21655" x1="174.5" y1="405" x2="14.5001" y2="780" gradientUnits="userSpaceOnUse">
<stop stop-color="white"/>
<stop offset="1" stop-color="white" stop-opacity="0"/>
</linearGradient>
<linearGradient id="paint2_linear_12333_21655" x1="310" y1="450.5" x2="150.001" y2="825.5" gradientUnits="userSpaceOnUse">
<stop stop-color="white"/>
<stop offset="1" stop-color="white" stop-opacity="0"/>
</linearGradient>
<linearGradient id="paint3_linear_12333_21655" x1="310.75" y1="507" x2="310.75" y2="788" gradientUnits="userSpaceOnUse">
<stop stop-color="#2B59FF"/>
<stop offset="1" stop-color="#2B59FF"/>
</linearGradient>
<linearGradient id="paint4_linear_12333_21655" x1="334.5" y1="528.5" x2="226.5" y2="711.5" gradientUnits="userSpaceOnUse">
<stop stop-color="#2552F5"/>
<stop offset="0.963541" stop-color="#739AFF"/>
</linearGradient>
<linearGradient id="paint5_linear_12333_21655" x1="190.5" y1="465" x2="315.5" y2="687.5" gradientUnits="userSpaceOnUse">
<stop stop-color="#2B59FF" stop-opacity="0.04"/>
<stop offset="1" stop-color="white" stop-opacity="0.78"/>
</linearGradient>
<linearGradient id="paint6_linear_12333_21655" x1="308.5" y1="675.5" x2="196.5" y2="426.5" gradientUnits="userSpaceOnUse">
<stop stop-color="white"/>
<stop offset="1" stop-color="#2B59FF" stop-opacity="0.15"/>
</linearGradient>
<linearGradient id="paint7_linear_12333_21655" x1="468.75" y1="588" x2="468.75" y2="677.5" gradientUnits="userSpaceOnUse">
<stop stop-color="#2B59FF" stop-opacity="0.17"/>
<stop offset="1" stop-color="white" stop-opacity="0"/>
</linearGradient>
<linearGradient id="paint8_linear_12333_21655" x1="433.5" y1="698" x2="463.5" y2="616" gradientUnits="userSpaceOnUse">
<stop stop-color="#2B59FF" stop-opacity="0"/>
<stop offset="1" stop-color="white"/>
</linearGradient>
<linearGradient id="paint9_linear_12333_21655" x1="464" y1="604.5" x2="482" y2="674.5" gradientUnits="userSpaceOnUse">
<stop stop-color="#E9FFEA"/>
<stop offset="1" stop-color="#64E169"/>
</linearGradient>
<linearGradient id="paint10_linear_12333_21655" x1="460" y1="595.5" x2="478" y2="665.5" gradientUnits="userSpaceOnUse">
<stop stop-color="#E9FFEA"/>
<stop offset="1" stop-color="#64E178"/>
</linearGradient>
<linearGradient id="paint11_linear_12333_21655" x1="420.75" y1="688" x2="420.75" y2="777.5" gradientUnits="userSpaceOnUse">
<stop stop-color="#2B59FF" stop-opacity="0.17"/>
<stop offset="1" stop-color="white" stop-opacity="0"/>
</linearGradient>
<linearGradient id="paint12_linear_12333_21655" x1="385.5" y1="798" x2="415.5" y2="716" gradientUnits="userSpaceOnUse">
<stop stop-color="#2B59FF" stop-opacity="0"/>
<stop offset="1" stop-color="white"/>
</linearGradient>
<linearGradient id="paint13_linear_12333_21655" x1="425" y1="768.5" x2="412" y2="699" gradientUnits="userSpaceOnUse">
<stop stop-color="#FFBD00"/>
<stop offset="1" stop-color="#FFF5D7"/>
</linearGradient>
<linearGradient id="paint14_linear_12333_21655" x1="193.5" y1="852.5" x2="44" y2="664" gradientUnits="userSpaceOnUse">
<stop stop-color="#2B59FF" stop-opacity="0.17"/>
<stop offset="1" stop-color="white" stop-opacity="0.82"/>
</linearGradient>
<linearGradient id="paint15_linear_12333_21655" x1="177.5" y1="817" x2="132.817" y2="681.56" gradientUnits="userSpaceOnUse">
<stop stop-color="#2B59FF" stop-opacity="0.4"/>
<stop offset="1" stop-color="white"/>
</linearGradient>
<clipPath id="clip0_12333_21655">
<rect width="510" height="820" fill="white"/>
</clipPath>
</defs>
</svg>
